<svg version="1.0" xmlns="http://www.w3.org/2000/svg" width="85.333" height="85.333" viewBox="0 0 64 64"><path d="M4 7.2c0 .7 3.3 4.5 7.3 8.6l7.2 7.3-3.4 6.3c-4.4 8.4-4 10 2.6 10.6l5.2.5-4.5 7.8C14 55.9 13.4 59 16.3 59c.8 0 6-3.7 11.6-8.2l10.3-8.1 9.6 9.6c5.4 5.4 10.3 9.7 11 9.7 2.8 0 .7-3-8.4-12.1l-9.5-9.6 5.6-4.3c4.1-3.2 5.5-4.9 5.3-6.4-.3-1.8-1.1-2.1-5.5-2.4-2.9-.2-5.3-.5-5.3-.8 0-.4 2.5-4.2 5.6-8.5 7.8-11.1 7.6-11.4-7-11.4h-12L24 13.2l-3.6 6.7-6.9-6.9C6.9 6.3 4 4.6 4 7.2zm43.2 2c-.7.7-1.2 1.8-1.2 2.5s-2.3 4.6-5.1 8.7-4.8 7.9-4.5 8.5c.4.6 3.3 1.1 6.4 1.1h5.6L45 32.9c-2.6 2.1-3.6 2.5-3.8 1.5-.4-1.8-2.9-1.8-3.9.1-.7 1.2-2.3 0-7.7-5.4l-6.8-6.8 2.1-4.2c1.2-2.2 2.6-4.1 3.1-4.1.6 0 1-.9 1-2 0-3 2.8-3.9 11.4-4 6.2 0 7.7.3 6.8 1.2zM27.4 31.9l5.8 5.9-2.6 1.7c-2.7 1.8-3.5 4.5-1.4 4.5.6 0 2-.7 3-1.7 1-.9 1.8-1.4 1.8-1.1 0 .3-3.1 3.1-7 6.2-3.8 3.1-7 5.4-7 5 0-.3 1.6-3.3 3.6-6.6 4.4-7.2 3.7-8.8-3.7-8.8H15l2.7-5.5c1.5-3 3-5.5 3.3-5.5.3 0 3.2 2.7 6.4 5.9z" fill="#f9b109"/></svg>