<svg version="1.0" xmlns="http://www.w3.org/2000/svg" width="85.333" height="85.333" viewBox="0 0 64 64"><path fill="#f9b129" d="M23.5 7l.7 7-3.2-.2c-3-.3-3.3 0-4.5 3.7-.7 2.2-2.7 6.7-4.5 10-2.9 5.5-3.1 6.6-2.8 13.2.3 6 .8 7.9 3.3 11.4 10.2 14.5 34 11.1 39.5-5.7 1.9-5.7.8-16.9-2.3-23.7-2.8-6.1-5.1-7.3-6.7-3.5-.7 1.8-.9 1.9-.9.5C41.8 13.4 30.4 0 25.3 0c-2.5 0-2.5 0-1.8 7zm5.3-1.8c.8.8.9 1.5.1 2.5-.9.9-.8 1.7.1 2.8 1.5 1.8 3.7 2 4.3.2.6-1.7 4.5 4.9 5.8 9.8.7 2.3.8 6.7.5 10.3-.9 8.1.8 8 3.6-.3 1.1-3.3 2.3-6.4 2.8-6.9 1.5-1.5 4.3 10.2 3.8 16.3-1.2 15.8-18.2 23.8-30.6 14.4-7.9-6-9.3-16-3.7-26.6 1.9-3.6 3.5-7.3 3.5-8.1 0-.8.5-1.8 1.2-2.2 1.3-.8 5.8 3.9 5.8 6.2 0 .8.7 1.4 1.5 1.4 1.8 0 1.9-2.3.4-5.2C26.7 17.7 26 4 27.1 4c.3 0 1 .5 1.7 1.2z"/></svg>