<svg version="1.0" xmlns="http://www.w3.org/2000/svg" width="85.333" height="85.333" viewBox="0 0 64 64"><path fill="#f9b129" d="M24 10.5c-4 3.3-5.6 4.1-5.8 3-.6-2.8-3.1-1.6-3.5 1.7-.3 2.3-.4 1.6-.5-2C14 9.3 13.6 8 12.5 8 11.3 8 11 9.4 11 14.7l-.1 6.8-4.4 3.4c-4.4 3.5-6 6.6-4.9 9.5.3.9 1.2 1.6 2 1.6C4.7 36 5 38 5 45.5c0 7.8-.3 9.5-1.5 9.5-.8 0-1.5.7-1.5 1.5C2 57.8 5.9 58 31 58s29-.2 29-1.5c0-.8-.9-1.5-2-1.5-1.9 0-2-.7-2-9.5s.1-9.5 2-9.5c1.7 0 2-.6 1.9-3.8 0-3.5-.6-4.2-13.5-14.7C39 11.4 32.1 6.4 31.2 6.2 30.3 6.1 27 8 24 10.5zm18.8 14.3L53 33.3V45H38.1l-.3-4.8-.3-4.7-5.8-.3c-7.1-.4-8.7.7-8.7 5.9V45H8l.1-5.8v-5.7l11.2-9.1c6.2-5 11.7-8.9 12.2-8.6.6.4 5.6 4.4 11.3 9zM35 46.5V55h-9V38h9v8.5z"/></svg>