<svg version="1.0" xmlns="http://www.w3.org/2000/svg" width="85.333" height="85.333" viewBox="0 0 64 64"><path fill="#f9b129" d="M22.2 22.3C10.2 34.3 1 44.4 1 45.4 1 48 15.9 63 18.5 63 20.8 63 64 20.4 64 18.1c0-.7-3.5-4.9-7.7-9.2C50.6 3 48 1 46 1s-7 4.4-23.8 21.3zM53.5 11c5 5 6.2 6.7 4.5 6.3-2.1-.6-2.2-.4-1.6 2.3l.8 2.9-3.1-2.9c-2.2-2.1-3.4-2.7-4.2-1.9-.7.7-.2 2 1.7 4.2l2.7 3.2-2.8-.7c-2.6-.6-2.8-.5-2.1 2 .6 2.4.5 2.6-1.3 1.4-2.6-1.6-3.9-.3-2.3 2.2 1.6 2.6 0 2.6-2.3 0-1-1.1-2.4-2-3.2-2-1.9 0-1.6 2.4.7 4.5 2.6 2.3 2.6 3.9 0 2.3-2.5-1.6-3.8-.3-2.2 2.3 1.2 1.8 1 1.9-1.4 1.3-2.6-.7-2.7-.5-2 2.2l.8 2.9-3.1-2.9c-2.4-2.3-3.4-2.7-4.3-1.8-.9.9-.5 1.9 1.8 4.3l2.9 3.1-2.9-.8c-2.7-.7-2.9-.6-2.2 2 .6 2.4.5 2.6-1.3 1.4-2.6-1.6-3.9-.3-2.3 2.2 1.6 2.6 0 2.6-2.3 0-1-1.1-2.4-2-3.2-2-1.9 0-1.6 2.4.7 4.5 2.6 2.3 2.6 3.9 0 2.3s-3.7-.2-2.1 2.5c.7 1.2-2.1-1.2-6.3-5.3L4 45.5l20.7-20.7C36.1 13.3 45.7 4 46 4c.3 0 3.7 3.1 7.5 7z"/></svg>