<svg version="1.0" xmlns="http://www.w3.org/2000/svg" width="85.333" height="85.333" viewBox="0 0 64 64"><path fill="#f9b129" d="M47.9 3.7c-2 2.1-4.6 5.4-5.9 7.3-1.3 1.9-2.5 3.6-2.6 3.8-.1.2-2.5-.8-5.3-2.2-6.3-3.2-9.1-3.3-12-.2-1.3 1.4-3.3 2.6-4.5 2.8-1.2.2-2.2 1.1-2.4 2.3-.2 1.2-3.2 4.1-7.2 6.9-10.1 7.1-10.1 7.1 7.3 24.4C24.7 58.1 30.4 63 31.8 63c1.5 0 3.7-2.2 7.4-7.5 3.2-4.4 6-7.5 7.1-7.5 1 0 2-.8 2.3-1.8.6-1.9 1.1-2.8 3.8-6.6l1.9-2.8-3-6.2-3-6.1 4.8-3.4c10.7-7.3 13.4-13.4 8.3-18.5-4.1-4-9-3.6-13.5 1.1zm11.7 1.8c2.2 3.3 1.1 5.7-4.2 9.7-2.5 1.8-6 4.5-7.7 6l-3.2 2.6 3.2 6.6c2.2 4.5 2.9 6.7 2.1 7.2-.6.4-.8.3-.4-.4 1-1.6-1.3-2.5-2.9-1.2-2 1.6-1.9 2.8.3 3.2 1 .2 1.3.6.6 1-.6.4-6.3-4.6-12.9-11.2l-12-12 2.2-2.2 2.2-2.2 4.9 2.7c6.7 3.6 8.6 3.4 11.8-1.1C51.7 3.3 56.4.6 59.6 5.5zM29.7 34.2l12.2 12.3-5.1 6.8c-5 6.7-5.1 6.8-7 4.9-1.8-1.8-1.8-2-.1-5 2.3-4 .8-5.5-2.2-2l-2.3 2.6-4.3-4.4-4.3-4.4 2.2-2.3c1.2-1.3 2.2-2.8 2.2-3.3s1-1.4 2.2-1.9c2.9-1.3 3.5-3.5 1-3.5-1.2 0-2.3.9-2.7 2-.3 1.1-1.1 2-1.8 2-.6 0-2.1 1-3.4 2.2-2.1 1.9-2.5 2-3.8.7-1.4-1.4-1.1-1.9 2.5-4.8 3.7-3 5.3-6.1 3-6.1-.5 0-2.8 1.6-5 3.6l-4.1 3.7L6.4 35c-1.3-1.3-2.3-2.7-2.2-3.1.3-.9 12-9.8 12.8-9.9.3 0 6 5.5 12.7 12.2z"/></svg>