<svg version="1.0" xmlns="http://www.w3.org/2000/svg" width="133.333" height="133.333" viewBox="0 0 100 100"><path fill="#f9b129" d="M67 2.8c-1.9.9-4.7 3.6-6.3 5.9L58 12.9l-3.7-1.6c-5.7-2.3-11.1-1.2-15.2 3.3-3.3 3.6-3.4 3.8-2.8 10.5l.6 6.9h-3.6c-2.7 0-4.3.8-6.9 3.4-4.4 4.4-4.6 8.7-.4 14.2 3.6 4.7 3.8 6.4.6 6.4-3.5 0-7.4 3.6-8.6 7.8-1.5 5.6.3 10.5 5.1 14.4l4.1 3.3-2.9 2.3c-4.2 3.5-12.4 7.2-16 7.2-2.6 0-3.3.4-3.3 2 0 5.3 9.6 3.6 20.1-3.6 6.5-4.4 8.4-5.2 9.9-4.4 2.7 1.4 11.5 1.2 15.4-.4 1.9-.8 4.6-3.3 6.2-5.7 2.9-4.3 3.1-4.4 9.2-4.7 5.3-.3 6.6-.7 9.1-3.2 3.8-3.8 4.5-7.3 2.7-13.3-1.4-4.8-1.4-4.8 1-5.7 1.4-.6 3.6-1.3 4.9-1.6 3.1-.8 5.4-3.4 7-8 1.6-4.7.6-8.4-3.7-13.7-3.1-4-3.1-4-1.9-9.8C86.8 9.5 84.3 4 77.1 2 72.2.6 71 .7 67 2.8zm11.9 5.6c1.5 1.6 1.6 3.7.6 13.1-.7 5.9-.6 6.2 2.9 10.4 6 7.1 4.1 12.6-5.2 15.1-5.7 1.5-7 4.5-4.8 11.5 1.5 4.7 1.5 5.1-.3 7.5-1.5 2.1-2.9 2.6-8.2 3-7.6.6-8.2.9-11 6-2.4 4.2-6.2 6.4-11 6.2-5.1-.1-5.1-1.2-.1-7 10.9-12.8 20.3-27.8 24.7-39.6 2.8-7.4 2.7-9.6-.4-9.6-1.2 0-2.1.9-2.6 2.7-1.4 5.6-7.7 17.9-14.1 27.5C43.1 64.7 32.7 77 30.9 77c-1.5 0-7.7-5.9-8.2-7.9-.2-1 .2-3.2 1-4.8 1-2.2 2.4-3.2 5.6-3.9 4-.9 4.2-1.1 4.5-5 .2-3.2-.3-4.7-2.8-7.8-1.6-2.1-3-4.4-3-5 0-2.7 2.9-4.8 8-5.9l5.5-1.3v-8.3c0-7.5.2-8.4 2.4-10.2 2.8-2.3 4.3-2.4 9.8-.3 4 1.5 4.4 1.5 6.9 0 1.4-1 3.5-3.3 4.6-5.3 1.2-1.9 3-3.9 4.2-4.4 2.7-1.1 7.6-.3 9.5 1.5z"/></svg>